<?xml version="1.0" encoding="UTF-8"?>
<!DOCTYPE svg PUBLIC "-//W3C//DTD SVG 1.1//EN" "http://www.w3.org/Graphics/SVG/1.1/DTD/svg11.dtd">
<!-- Creator: CorelDRAW -->
<svg xmlns="http://www.w3.org/2000/svg" xml:space="preserve" width="2048px" height="2048px" style="shape-rendering:geometricPrecision; text-rendering:geometricPrecision; image-rendering:optimizeQuality; fill-rule:evenodd; clip-rule:evenodd"
viewBox="0 0 2048 2048"
 xmlns:xlink="http://www.w3.org/1999/xlink">
 <defs>
  <style type="text/css">
   <![CDATA[
    .fil1 {fill:none}
    .fil0 {fill:#424242}
    .fil2 {fill:white}
   ]]>
  </style>
 </defs>
 <rect class="fil0" width="2048" height="2048"/>
 <g id="Layer_x0020_1">
  <metadata id="CorelCorpID_0Corel-Layer"/>
  <rect class="fil1" width="2048" height="2048"/>
  <rect class="fil1" x="255.999" y="255.999" width="1536" height="1536"/>
  <rect class="fil1" x="255.999" y="255.999" width="1536" height="1536"/>
  <rect class="fil1" x="255.999" y="255.999" width="1536" height="1536"/>
  <path class="fil2" d="M1614.92 1792.01l-1181.49 0c-65.2016,0 -118.285,-53.1036 -118.285,-118.306l0 -1299.4c0,-65.2028 53.0835,-118.306 118.285,-118.306l1181.49 0c64.826,0 117.93,53.1036 117.93,118.306l0 1299.4c0,65.2028 -53.1036,118.306 -117.93,118.306zm0 -118.306l0 59.1532 0 -59.1532zm-1181.49 -1299.4l0 1299.4 1181.2 0 0.292914 -1299.4 -1181.49 0z"/>
  <path class="fil2" d="M610.517 517.03l118.306 0 0 117.991 -118.306 0 0 -117.991zm236.211 0l590.755 0 0 117.991 -590.755 0 0 -117.991z"/>
  <path class="fil2" d="M846.728 815.685l590.755 0 0 117.991 -590.755 0 0 -117.991zm-236.211 0l118.306 0 0 117.991 -118.306 0 0 -117.991z"/>
  <path class="fil2" d="M610.517 1114.34l118.306 0 0 117.992 -118.306 0 0 -117.992zm236.211 0l590.755 0 0 117.992 -590.755 0 0 -117.992z"/>
  <path class="fil2" d="M610.517 1412.99l118.306 0 0 117.992 -118.306 0 0 -117.992zm236.211 0l590.755 0 0 117.992 -590.755 0 0 -117.992z"/>
 </g>
</svg>
